<?xml version="1.0" standalone="no"?>
<!DOCTYPE svg PUBLIC "-//W3C//DTD SVG 20010904//EN"
 "http://www.w3.org/TR/2001/REC-SVG-20010904/DTD/svg10.dtd">
<svg version="1.0" xmlns="http://www.w3.org/2000/svg"
 width="512.000000pt" height="512.000000pt" viewBox="0 0 512.000000 512.000000"
 preserveAspectRatio="xMidYMid meet">
<metadata>
Created by potrace 1.11, written by Peter Selinger 2001-2013
</metadata>
<g transform="translate(0.000000,512.000000) scale(0.100000,-0.100000)"
fill="#000000" stroke="none">
<path d="M2449 4660 c-100 -51 -152 -127 -162 -240 -9 -101 59 -212 163 -265
47 -25 160 -28 218 -6 70 25 157 124 169 191 14 74 4 141 -31 208 -61 117
-237 172 -357 112z"/>
<path d="M2333 4619 c-2 -23 3 -25 10 -4 4 8 3 16 -1 19 -4 3 -9 -4 -9 -15z"/>
<path d="M2687 3995 c-1 -2 -38 -5 -82 -9 -44 -3 -91 -8 -105 -11 -14 -3 -37
-7 -53 -10 -209 -39 -500 -177 -721 -344 -87 -66 -111 -135 -70 -199 36 -55
128 -51 218 9 33 23 63 45 66 49 3 3 21 17 40 30 19 13 37 27 40 31 20 26 359
212 345 189 -3 -6 9 -1 27 9 31 18 158 59 203 66 11 2 29 6 40 8 74 17 275 25
334 13 12 -3 42 -8 65 -10 105 -13 305 -84 432 -152 93 -50 271 -167 286 -189
4 -5 10 -6 15 -2 17 18 -317 307 -354 307 -4 0 -14 6 -22 14 -9 8 -52 32 -96
54 -186 93 -340 134 -558 146 -26 1 -48 2 -50 1z"/>
<path d="M1559 3669 c-122 -124 -209 -246 -285 -394 -40 -78 -91 -202 -98
-241 -2 -10 -9 -37 -15 -59 -18 -70 -26 -147 -25 -280 0 -140 5 -194 29 -284
8 -31 16 -66 18 -77 2 -10 7 -28 12 -39 4 -11 23 -60 42 -110 68 -176 251
-480 316 -527 39 -28 125 -31 151 -6 54 54 35 166 -41 255 -33 37 -54 64 -68
85 -5 9 -32 49 -59 89 -47 71 -140 250 -164 314 -53 148 -80 298 -77 435 4
172 13 225 62 385 22 71 141 315 154 315 5 0 8 4 5 9 -3 5 1 14 9 21 8 7 15
18 15 24 0 6 10 22 23 36 12 14 30 37 40 53 9 15 24 38 33 52 30 46 2 26 -77
-56z"/>
<path d="M3423 3446 c-19 -17 -27 -34 -30 -72 -7 -65 8 -98 90 -205 117 -153
225 -338 262 -449 1 -3 7 -18 13 -33 7 -16 12 -34 12 -41 0 -7 3 -16 7 -20 4
-3 8 -14 9 -23 2 -9 6 -28 10 -42 4 -14 8 -30 9 -36 1 -5 3 -12 4 -15 19 -41
30 -252 19 -345 -14 -105 -18 -129 -34 -185 -8 -30 -16 -62 -18 -70 -22 -94
-144 -331 -233 -456 -61 -85 -67 -94 -55 -94 5 0 36 28 68 61 33 34 69 72 82
85 12 13 22 25 22 28 0 3 11 17 25 32 85 92 238 380 261 491 2 12 9 34 14 48
5 14 7 25 5 25 -2 0 0 11 5 25 21 55 29 238 16 370 -8 85 -12 112 -33 190 -8
33 -16 65 -18 70 -8 33 -86 225 -116 287 -73 145 -208 344 -256 375 -40 26
-109 26 -140 -1z"/>
<path d="M630 2825 c-88 -23 -146 -65 -186 -137 -23 -44 -29 -67 -31 -130 -2
-64 2 -84 23 -126 28 -56 90 -116 144 -138 19 -9 65 -17 101 -18 150 -8 273
103 284 254 5 70 -13 137 -49 184 -14 19 -22 37 -18 41 4 5 2 5 -5 1 -6 -3
-15 0 -20 7 -26 45 -168 81 -243 62z"/>
<path d="M4353 2815 c-115 -34 -195 -145 -196 -271 0 -75 35 -157 86 -200 18
-15 31 -30 30 -34 -1 -4 3 -7 10 -8 7 0 31 -8 55 -16 64 -24 111 -25 178 -5
217 67 268 347 89 489 -21 17 -50 33 -64 37 -14 3 -30 8 -36 11 -18 11 -111 9
-152 -3z"/>
<path d="M3281 1688 c-31 -16 -58 -32 -61 -36 -13 -17 -99 -82 -109 -82 -6 0
-11 -3 -11 -8 0 -10 -101 -75 -117 -75 -7 0 -11 -3 -8 -5 5 -6 -13 -16 -127
-73 -84 -43 -264 -106 -322 -113 -20 -3 -41 -8 -45 -11 -11 -6 -145 -18 -206
-18 -56 0 -151 11 -210 23 -27 6 -61 13 -75 15 -84 18 -303 108 -370 153 -14
9 -28 17 -31 17 -8 0 -120 76 -143 97 -11 10 -28 20 -38 24 -10 3 -18 9 -18
14 0 4 -7 10 -15 14 -8 3 -15 1 -15 -4 0 -11 148 -160 159 -160 4 0 16 -9 26
-20 61 -68 374 -246 465 -265 19 -4 40 -11 45 -15 9 -6 79 -21 210 -45 39 -7
230 -8 275 -1 19 3 51 7 70 10 28 4 108 22 185 41 6 1 19 5 30 10 11 4 61 23
110 42 115 45 256 119 365 192 47 32 88 57 91 57 3 -1 27 23 53 53 56 67 61
108 19 160 -40 47 -104 50 -182 9z"/>
<path d="M2478 960 c-74 -23 -156 -100 -179 -166 -21 -63 -16 -171 10 -222 27
-52 141 -166 141 -141 0 8 4 8 14 -1 9 -7 47 -12 93 -12 125 1 206 51 255 161
23 51 28 145 10 206 -15 51 -83 130 -135 156 -45 24 -163 34 -209 19z"/>
</g>
</svg>
