<svg version="1" xmlns="http://www.w3.org/2000/svg" width="440" height="440" viewBox="0 0 330.000000 330.000000"><path d="M200 13.7c-5.9 4.6-11.9 8.1-17.9 10.3l-4.9 1.9-.4-5.9c-.2-3.3-.7-6.2-1-6.6-.3-.3-4.8 1.4-10 3.9-5.1 2.4-15.4 6.6-22.8 9.2-15.6 5.5-19 7.1-28.5 13.5-7.2 4.9-17.5 15-18.9 18.5-.7 1.6-1.2.9-2.5-3.9-1-3.3-2.2-6.1-2.8-6.3-.5-.2-2.1 1.2-3.4 3.2-1.3 1.9-2.7 3.5-3.1 3.5-.5 0-.8.4-.8.9 0 .6-2.6 5.2-5.8 10.3-9.4 15.1-10.8 19.6-11.8 38-.8 15 2.5 59.5 5.1 68.6.9 2.9 1.4 6.7 1.1 8.5-.3 1.8-.8 5-1.1 7.2l-.7 4-2-4c-2.3-4.6-6.6-9.5-8.4-9.5-1 0-3 4.9-2.2 5.4.2.2 1.8 1.3 3.6 2.5 4.3 3 5.9 6.4 6.7 14.2.4 3.5 1.1 8 1.5 9.9.5 1.9 1 6.4 1.1 10 .3 5.9.1 6.5-1.8 6.8-1.3.2-2.9-.7-4.2-2.4-2.4-3.1-2.8-2.4-.6 1 .9 1.4 3 2.7 4.8 3 3.1.6 3.4 1 4.5 6.4 1.6 7.5 7.2 20.9 12.1 29.1 9 14.8 21 27.8 36.6 39.4 10.3 7.7 18.4 11.5 28.7 13.3 15.1 2.8 27.7.4 42.9-7.9 27.6-15 48-36.7 56.5-60.1 1.6-4.5 2.6-6 3.9-5.8 2.2.4 6.1-2.2 7.6-5 1-2 .8-2-1.8.4-1.6 1.6-3.7 2.8-4.7 2.8-1.6 0-1.7-.5-1.1-3.8.4-2 1.6-6.2 2.6-9.2 1.1-3 2.8-8.7 3.8-12.5 1-3.9 2.3-8 3-9.3 1.6-3 7.2-5.6 8.3-3.9.4.7.8-1.2.8-4.1 0-4.1-.3-5.2-1.6-5.2-1.6 0-6.9 5-10.7 10.1-1.8 2.4-1.8 2.3-1.3-5.4.4-4.7 1.4-9.8 2.7-12.5 4.1-9.4 11.4-46.4 12.6-63.7.7-11.1-1.6-21.4-8.3-37.8C260.6 73 252.2 57 250.8 57c-.4 0-.7.3-.6.7.1.5-.2 3.7-.6 7.2l-.8 6.4-2.4-2.9c-2.8-3.5-3-4-9.2-18-5.3-11.8-9.6-19.4-11.1-19.4-.5 0-1.7 2.4-2.7 5.2l-1.7 5.3-2.7-11c-3.1-12.2-4.6-16.5-5.7-16.5-.5 0-1.9 1.7-3.3 3.8l-2.5 3.7-.5-5.4c-.3-3-.9-5.6-1.5-5.7-.5-.2-3 1.3-5.5 3.3zm-46.5 86.6c12.1 2.5 26.3 3.5 43.5 2.9 15.5-.4 15.6-.4 25 2.8 5.2 1.8 11.1 4.1 13.2 5.1 7.5 3.8 13.4 14.4 14.5 26.3.4 4.7-.1 8.5-2 16.1-2.4 9.5-2.6 11.8-3.1 43-.3 18.1-1 35.2-1.5 38-1.8 8.4-7 17.6-11.6 20.3-7 4-15 2.1-23.1-5.5-5.1-4.8-9.6-6.2-22.4-7-5.5-.3-10-.8-10-1.1 0-.3.8-1.4 1.7-2.5 2-2.2 2.1-7.7.2-12.2-1.3-3-1.3-3-1.6-.5-1.3 9.3-3.2 11-11.7 11-3.4 0-7.7-.5-9.5-1.1-3.5-1.2-6.1-5.3-6.1-9.6-.1-2.7-.1-2.7-1.5-.9-2 2.6-1.9 10 0 12 .8.8 1.5 1.6 1.5 1.8 0 .2-6.2.3-13.8.3h-13.7l-7.1 4.2c-11.3 6.9-18 6-26.6-3.6-8.3-9.2-9.2-22.5-3.8-60.6 2.4-17.6 2.6-21.4 1.7-29.5-1.1-8.8 2-23.9 6.8-33.7 3.8-7.7 11.1-15.2 14.9-15.4 1.2 0 6.6-.7 12.1-1.4 12.4-1.6 23.6-1.4 34 .8zM170 250c2.5.5 9 1.7 14.4 2.6 5.5 1 9.4 2 8.7 2.2-.7.2-8.7-.3-17.9-1.2-9.2-.8-23.4-1.8-31.7-2-8.2-.3-15.2-.6-15.5-.7-.3-.2 3.1-.6 7.5-.9 12.3-1 29.5-1 34.5 0zm-47 5.5c0 2.7 9 15.3 14.3 20.1 2.9 2.6 7.7 5.9 10.7 7.3 4.7 2.2 6.9 2.6 15 2.6 8.9 0 9.9-.2 15.8-3.4 6.2-3.4 17.4-14.1 21.2-20.4l1.9-3 .7 2.7c.8 3.5-.2 11.4-2.2 16.3-3.2 7.8-8.4 12.5-16.4 14.8l-2.5.7 2.2-1.7c2.2-1.5 8.3-9.7 8.3-11 0-.3-.9-.1-1.9.5-3.1 1.6-3.6 1.2-1.5-1.3 5.2-5.9 4.2-5.6-2.9 1-7.9 7.3-13.6 10.3-22.3 11.7-4.9.9-13.6-1.9-19.7-6.1-7.2-5-12.7-8.3-12.7-7.4 0 1.5 5.9 9 8.1 10.1 3 1.6 1.9 2.1-2.3 1-6-1.7-11.7-6.6-14.4-12.4-2.5-5.6-3.4-14.2-2-20.4.8-3.2 2.6-4.5 2.6-1.7zm39.7 2.1c6.1.4 11 1.2 12 2 1.5 1.1.4 1.3-8.2 1.4-8.8 0-22.3-1.4-23.3-2.5-.2-.2-.1-.9.3-1.5.5-.8 2.2-1 4.9-.6 2.2.3 8.7.8 14.3 1.2zm-.6 25.4l8.4.8-8.7-.1c-5.6-.1-9.2-.7-10-1.5-1.1-1.1-1-1.2.3-.7.9.3 5.4 1 10 1.5z"/><path d="M117.8 137.1c-9.5 1.5-22.8 9.9-22.8 14.3 0 2.4 3 2 10.6-1.6 5.2-2.4 8.5-3.3 14.5-3.6 7.1-.4 8.3-.2 14.4 2.7 3.7 1.7 7.5 3.1 8.4 3.1 2.3 0 4.3-4.7 3-7.1-2.6-5-18.4-9.4-28.1-7.8zM202.5 142.4c-9.3 3-12.1 5.5-10.9 10.2.8 3 3.5 3.1 10 .4 10.1-4.4 20.8-3.4 29.1 2.6 2.7 1.9 5.8 4.1 7.1 5 1.8 1.3 2.6 1.4 3.5.5 2.9-2.9-6.4-13.2-15.8-17.7-5.7-2.7-16.1-3.2-23-1zM114.2 169.2c-.8 1 .2 1.2 4.9 1 10.2-.6 18.7 4.7 24.4 15.3l2.7 5-.6-4c-1.4-9.7-13.1-18.5-24.6-18.5-3.4 0-6.2.5-6.8 1.2z"/><path d="M115.5 174c-5.3 2.1-9.2 10.2-8.1 16.4.8 4.3.2 4 12.6 5.6 5.2.6 10.4 1.4 11.5 1.6 1.4.3 2.5-.4 3.8-2.7 3.4-6 1.6-14.3-4.2-19.2-2.7-2.2-4.2-2.7-8.4-2.6-2.9 0-6.1.4-7.2.9zm2.9 4.6c1.9.7 2.1 3.5.4 5.2-1.6 1.6-2.3 1.5-4.2-.4-1.2-1.2-1.3-2-.6-3.5 1.1-2 1.9-2.3 4.4-1.3zM203.3 175c-6.5 1.3-11.8 4.5-16.5 10-4.7 5.4-6 8.5-4.6 11.2 1.4 2.8 2.2 2.2 4.1-3.3 2-5.6 9.5-13.9 12.5-13.9 1 0 2.2-.3 2.6-.7 1.6-1.6 8.5-2.1 14.8-1.1 4.7.7 4-.8-1-2.2-4.2-1.1-6-1.1-11.9 0z"/><path d="M202.4 180.5c-5.7 3-7.7 6-8.2 12.4-.7 9.8-.3 10.1 14.3 10.1 14.2 0 14.6-.2 14.9-9.1.1-5.1-1.8-8.6-6.5-12.1-3.5-2.6-10.7-3.2-14.5-1.3zm3.1 7.5c0 1.8-.6 2.6-2.3 2.8-2.4.4-3.8-1.8-2.8-4.4.3-.9 1.5-1.4 2.8-1.2 1.7.2 2.3 1 2.3 2.8z"/></svg>